<?xml version="1.0" encoding="utf-8"?>
<!-- Generator: Adobe Illustrator 18.0.0, SVG Export Plug-In . SVG Version: 6.00 Build 0)  -->
<!DOCTYPE svg PUBLIC "-//W3C//DTD SVG 1.1//EN" "http://www.w3.org/Graphics/SVG/1.1/DTD/svg11.dtd">
<svg version="1.1" xmlns="http://www.w3.org/2000/svg" xmlns:xlink="http://www.w3.org/1999/xlink" x="0px" y="0px"
	 viewBox="0 0 710.1 679.6" enable-background="new 0 0 710.1 679.6" xml:space="preserve">
<g id="Layer_1">
	<g>
		<g>
			<g>
				<g>
					<path fill-rule="evenodd" clip-rule="evenodd" fill="#27245E" stroke="#FFFFFF" stroke-miterlimit="10" d="M667.9,93.9
						c0,0,19.4-61.8,21.2-75.2c0,0-104.3,66.7-257.6,186.1l-9.7-5.5c0,0,7.3-21.8-17.6-26.1l32.1-23c0,0,9.1-7.3,10.3-20.6l-53.3,40
						c0,0-2-0.7-5.4-1.7c-10.9-4.1-22.4-5.2-32.8-5c-10.5-0.2-21.9,1-32.8,5c-3.4,1-5.3,1.7-5.3,1.7l-53.3-40
						c1.2,13.3,10.3,20.6,10.3,20.6l32.1,23c-24.9,4.2-17.6,26.1-17.6,26.1l-9.7,5.5C125.3,85.4,21,18.7,21,18.7
						c1.8,13.3,21.2,75.2,21.2,75.2L12.5,79.3l34.6,87.3c38.2,90.9,96.4,98.2,96.4,98.2c6.7,25.5,29.1,50.3,29.1,50.3h-50.3v54
						l-29.7,15.8l30.3,16.4v47.9l32.7,20l46.1-5.5l128.5,75.2c13.3,40.6,24.9,103.7,24.9,103.7s11.5-63,24.9-103.7l128.5-75.2
						l46.1,5.5l32.7-20v-47.9l30.3-16.4l-29.7-15.8v-54h-50.3c0,0,22.4-24.9,29.1-50.3c0,0,58.2-7.3,96.4-98.2l34.6-87.3L667.9,93.9
						z"/>
					<path fill="#7E7E7F" stroke="#FFFFFF" stroke-miterlimit="10" d="M689.1,18.7c-1.8,13.3-21.2,75.2-21.2,75.2l29.7-14.5
						L663,166.6c-38.2,90.9-96.4,98.2-96.4,98.2c-6.7,25.5-29.1,50.3-29.1,50.3h50.3v54l29.7,15.8l-30.3,16.4v47.9l-32.7,20
						l-46.1-5.5l-128.5,75.2c-13.3,40.6-24.9,103.7-24.9,103.7s-11.5-63-24.9-103.7l-128.5-75.2l-46.1,5.5l-32.7-20v-47.9
						l-30.3-16.4l29.7-15.8v-54h50.3c0,0-22.4-24.9-29.1-50.3c0,0-58.2-7.3-96.4-98.2L12.5,79.3l29.7,14.5c0,0-19.4-61.8-21.2-75.2
						c0,0,104.3,66.7,257.6,186.1l9.7-5.5c0,0-7.3-21.8,17.6-26.1l-32.1-23c0,0-9.1-7.3-10.3-20.6l53.3,40c0,0,2-0.7,5.3-1.7
						c10.1-3.7,20.7-5.1,30.4-5.1c0.8,0,1.6,0,2.4,0c0.8,0,1.6,0,2.4,0c9.8,0,20.3,1.3,30.4,5.1c3.4,1,5.4,1.7,5.4,1.7l53.3-40
						c-1.2,13.3-10.3,20.6-10.3,20.6l-32.1,23c24.9,4.2,17.6,26.1,17.6,26.1l9.7,5.5C584.8,85.4,689.1,18.7,689.1,18.7 M697.6,5.3
						l-12.1,7.8c-1,0.7-104.7,67.2-254.6,183.7l-1.6-0.9c0.5-4.4,0.3-10.7-3.3-16.7c-1.9-3.2-4.5-5.8-7.7-7.8l21.9-15.7l0.1-0.1
						l0.1-0.1c0.5-0.4,11.3-9.2,12.8-25.2l1.4-14.9l-12,9L392,162.3c-0.6-0.2-1.3-0.4-2.1-0.6c-9.7-3.6-20.7-5.4-32.5-5.4
						c-0.8,0-1.6,0-2.4,0c-0.8,0-1.6,0-2.4,0c-11.9,0-22.8,1.8-32.5,5.4c-0.8,0.2-1.4,0.4-2.1,0.6l-50.6-37.9l-12-9l1.4,14.9
						c1.5,16,12.3,24.8,12.8,25.2l0.1,0.1l0.1,0.1l21.9,15.7c-3.2,2-5.8,4.7-7.7,7.8c-3.6,5.9-3.8,12.3-3.3,16.7l-1.6,0.9
						C129.3,80.3,25.7,13.8,24.6,13.1L12.5,5.3l1.9,14.3c1.3,9.7,11,42.1,16.9,61.5l-15.8-7.8L0,65.8l6.3,16l34.6,87.3l0,0.1l0,0.1
						c9,21.3,19.8,39.9,32.1,55.3c10,12.4,21,22.8,32.8,30.8c14.2,9.7,26.2,13.7,32.4,15.2c4.7,14.7,13.7,28.7,20.5,37.9h-36.4h-6.7
						v6.7v49.9L89.4,379l-11,5.8l11,5.9l26.8,14.5v43.9v3.7l3.2,2l32.7,20l2,1.2l2.3-0.3l43.9-5.2l124.4,72.8
						c12.7,39.8,23.7,99.8,23.9,100.4l6.6,35.9l6.6-35.9c0.1-0.6,11.1-60.6,23.9-100.4l124.4-72.8l43.9,5.2l2.3,0.3l2-1.2l32.7-20
						l3.2-2v-3.7v-43.9l26.8-14.5l11-5.9l-11-5.8l-26.2-13.9v-49.9v-6.7h-6.7h-36.4c6.8-9.2,15.8-23.2,20.5-37.9
						c6.2-1.5,18.1-5.5,32.4-15.2c11.8-8,22.8-18.4,32.8-30.8c12.4-15.4,23.2-34,32.1-55.3l0-0.1l0-0.1l34.6-87.3l6.3-16l-15.5,7.6
						l-15.8,7.8c5.9-19.3,15.6-51.8,16.9-61.5L697.6,5.3L697.6,5.3z"/>
				</g>
				<g>
					<path fill-rule="evenodd" clip-rule="evenodd" fill="#FFFFFF" stroke="#FFFFFF" stroke-miterlimit="10" d="M42.8,111.8L78,130
						c0,0-25.5-57.6-28.5-69.1c0,0,68.5,32.7,246.1,172.8c0,0,4.8,13.9,8.5,20L108.9,147.5l150.9,109.1l-85.5-8.5
						c0,0-76.4-7.3-98.8-60C53.2,135.4,42.8,111.8,42.8,111.8z"/>
					<path fill-rule="evenodd" clip-rule="evenodd" fill="#148EA9" stroke="#FFFFFF" stroke-miterlimit="10" d="M295.4,233.6
						C117.8,93.6,49.3,60.9,49.3,60.9c0.9,3.5,3.9,11.3,7.7,20.4l239.5,155.2C295.8,234.7,295.4,233.6,295.4,233.6z"/>
					<path fill-rule="evenodd" clip-rule="evenodd" fill="#148EA9" stroke="#FFFFFF" stroke-miterlimit="10" d="M166.1,267.2
						c0,0,14.8,33.9,39.4,51.1c0,0-12.5-25.1-10.9-34.8l6.5,9.3c0,0,39.4-5.3,70.3-4.2C271.4,288.6,191.4,275.3,166.1,267.2z"/>
					<path fill="#148EA9" stroke="#FFFFFF" stroke-miterlimit="10" d="M202.7,435.9l13.3-1.2l62,36.2c0,0,3.4,7.9,11.9,16.4
						L202.7,435.9z"/>
				</g>
				<g>
					<path fill-rule="evenodd" clip-rule="evenodd" fill="#FFFFFF" stroke="#FFFFFF" stroke-miterlimit="10" d="M666.6,111.8
						L631.5,130c0,0,25.5-57.6,28.5-69.1c0,0-68.5,32.7-246.1,172.8c0,0-4.8,13.9-8.5,20l195.2-106.1L449.6,256.7l85.5-8.5
						c0,0,76.4-7.3,98.8-60C656.3,135.4,666.6,111.8,666.6,111.8z"/>
					<path fill-rule="evenodd" clip-rule="evenodd" fill="#148EA9" stroke="#FFFFFF" stroke-miterlimit="10" d="M414.1,233.6
						C591.7,93.6,660.2,60.9,660.2,60.9c-0.9,3.5-3.9,11.3-7.7,20.4L413,236.5C413.7,234.7,414.1,233.6,414.1,233.6z"/>
					<path fill-rule="evenodd" clip-rule="evenodd" fill="#148EA9" stroke="#FFFFFF" stroke-miterlimit="10" d="M543.4,267.2
						c0,0-14.8,33.9-39.4,51.1c0,0,12.5-25.1,10.9-34.8l-6.5,9.3c0,0-39.4-5.3-70.3-4.2C438.1,288.6,518.1,275.3,543.4,267.2z"/>
					<path fill="#148EA9" stroke="#FFFFFF" stroke-miterlimit="10" d="M506.8,435.9l-13.3-1.2l-62,36.2c0,0-3.4,7.9-11.9,16.4
						L506.8,435.9z"/>
				</g>
			</g>
			<g>
				<path fill="#148EA9" stroke="#FFFFFF" stroke-miterlimit="10" d="M287.3,456.3c3.3,5.6,11.4,18.1,24.6,29.2
					c4.5-1.9,10.1-4.9,15-9.5C326.9,476.1,304.9,470.7,287.3,456.3z"/>
				<path fill="#148EA9" stroke="#FFFFFF" stroke-miterlimit="10" d="M304,439.2c-4.5,1.6-8.1,3.4-10.9,5c-2.9,1.7-4.9,3.2-6.1,4.3
					c6.3,5.2,21.5,16.2,39.9,18.4C326.9,467,324.9,460.3,304,439.2z"/>
				<path fill="#148EA9" stroke="#FFFFFF" stroke-miterlimit="10" d="M423.1,450c-0.8-0.9-3-3.1-7.5-5.6c-2.3-1.4-5.1-2.8-8.6-4.2
					c-20,20.4-22,26.9-22,26.9C401.8,464.9,416,455.5,423.1,450z"/>
				<path fill="#148EA9" stroke="#FFFFFF" stroke-miterlimit="10" d="M398.2,484.8c10.2-8.9,17.4-18.5,21.4-24.7
					c-16.5,11.6-34.6,16-34.6,16C389.2,480.1,394.1,482.9,398.2,484.8z"/>
				<path fill="#148EA9" stroke="#FFFFFF" stroke-miterlimit="10" d="M385.6,453.1l15-15.2c-9.6-3-22.9-5.3-41-5.7l-5.7,57.8
					l-3.6-57.9c-17.2,0.2-30.1,2.3-39.7,5l15.7,15.9c0,0,26.7,27-7.5,37.8c6.6,4.7,14.3,8.8,22.9,11.6h-15.8
					c2.5,3.9,5.3,9.2,8.5,16.2c3.9-3.2,11-7.7,20.3-7.7c8.1,0,15.1,3.9,19.7,7.4c3.1-6.9,5.9-12.1,8.4-15.9h-15.3
					c9-2.9,17-7.3,23.8-12.2C359.9,479.1,385.6,453.1,385.6,453.1z"/>
				<path fill="#FFFFFF" stroke="#FFFFFF" stroke-miterlimit="10" d="M340.1,532.7c4.5,12.1,9.3,27.6,14.2,47.6v0.1c0,0,0,0,0,0
					c0,0,0,0,0,0v-0.1c4.9-19.8,9.7-35.3,14.1-47.3c-2.8-2.6-7.2-5.4-13.4-5.4C348.2,527.6,343.2,530.4,340.1,532.7z"/>
			</g>
		</g>
		<path fill="#148EA9" stroke="#FFFFFF" stroke-miterlimit="10" d="M391.6,182.2c-7,4.6-16.5,12.6-18.8,23.4c0,0-3.5-11.5,7.8-26.8
			c-6.9-1.6-15.3-2.7-25.3-2.7c-10.3,0-18.9,1.2-25.9,2.9c11.3,15.2,7.7,26.6,7.7,26.6c-2.2-10.7-11.6-18.7-18.6-23.3
			c-3.9,1.5-6.9,3.1-9.1,4.3c6.4,2.2,13.9,8.3,20,23.6c0,0,2.1,25.7,16.5,33.2c-12.8,15.5-34.6-1.8-34.6-1.8
			c12.1,30.3,43.2,43.8,43.2,43.8c11.5-8.1,10.4-29.8,8.8-41.9c14.6-7.3,16.7-33.3,16.7-33.3c6.2-15.7,14-21.8,20.5-23.8
			C398.4,185.2,395.4,183.7,391.6,182.2z"/>
		<path fill="#FFFFFF" stroke="#FFFFFF" stroke-miterlimit="10" d="M323.1,223.4c0,0-13.9,24.5,12.4,22
			C335.5,245.4,324.6,238.4,323.1,223.4z"/>
		<path fill="#FFFFFF" stroke="#FFFFFF" stroke-miterlimit="10" d="M385.7,223.4c0,0,13.9,24.5-12.4,22
			C373.3,245.4,384.2,238.4,385.7,223.4z"/>
		<g>
			<path fill="#FFFFFF" stroke="#FFFFFF" stroke-miterlimit="10" d="M249.3,343.4h-53l7.5,7.6v63.6l7.2,7.6l45.7-3.8V351
				L249.3,343.4z M238.9,402.5l-18.2,0.6V359h18.8L238.9,402.5z"/>
			<polygon fill="#FFFFFF" stroke="#FFFFFF" stroke-miterlimit="10" points="173.4,328.3 173.4,363.5 155,371.6 155,328.3 
				137.4,328.3 137.4,379.4 124.3,385.3 137.4,391.6 137.4,431.4 155,429.5 155,392 173.4,383.4 173.4,427.1 191,425.3 191,328.3 
							"/>
			<path fill="#FFFFFF" stroke="#FFFFFF" stroke-miterlimit="10" d="M327.6,416.4l-10.4-26.5h6.8V351l-7.5-7.6h-53l7.5,7.6v66.8
				l16.8-1v-26.3h11.3l10.5,25.7L327.6,416.4z M287.8,359h18.8l-0.2,15.2h-18.6V359z"/>
			<polygon fill="#FFFFFF" stroke="#FFFFFF" stroke-miterlimit="10" points="337.6,415.4 354.4,415.4 354.4,359 373.2,359 
				373.2,415.6 390.6,415.6 390.6,351 383.1,343.4 330.1,343.4 337.6,351 			"/>
			<polygon fill="#FFFFFF" stroke="#FFFFFF" stroke-miterlimit="10" points="456.2,418.2 456.1,401.7 423,400.3 423,387.5 
				455.9,389.1 455.9,372.3 423,371.9 423,359 456.1,359 456.1,343.4 398,343.4 405.5,351 405.5,416 			"/>
			<polygon fill="#FFFFFF" stroke="#FFFFFF" stroke-miterlimit="10" points="512.2,343.4 464.1,343.4 464.1,358.8 479.3,358.8 
				479.3,420.3 497.8,422.2 497.8,358.8 512.2,358.8 			"/>
			<g>
				<polygon fill="#FFFFFF" stroke="#FFFFFF" stroke-miterlimit="10" points="571.5,430.9 571.5,391.2 585.8,384.3 571.6,377.9 
					554.5,370.5 554.5,370.6 537.1,363.2 537.1,356.9 537.1,344.1 554.5,344.1 554.5,350.9 571.5,350.9 571.5,344.1 571.5,328.5 
					571.5,328.4 512.2,328.4 519.1,335.5 519.1,376 536.7,383 536.7,383 554.5,390.9 554.5,413.1 536.7,411 536.7,403.8 519.1,402 
					519.1,424.3 				"/>
			</g>
		</g>
		<g>
			<g>
				<polygon fill="#FFFFFF" stroke="#FFFFFF" stroke-miterlimit="10" points="237.9,312 237.9,303.8 219.1,303.8 219.1,325.9 
					219.2,325.9 222.2,329 237.9,329 237.9,320 230.8,320 230.8,322.4 226.4,322.4 226.4,309.9 230.8,309.9 230.8,312 				"/>
			</g>
			<g>
				<polygon fill="#FFFFFF" stroke="#FFFFFF" stroke-miterlimit="10" points="271,303.8 263.7,303.8 263.7,314.9 257.9,314.9 
					257.9,303.8 250.6,303.8 250.6,329 257.9,329 257.9,321.4 263.7,321.4 263.7,329 271,329 				"/>
			</g>
			<path fill="#FFFFFF" stroke="#FFFFFF" stroke-miterlimit="10" d="M303.7,307L303.7,307l-3.1-3.1h-10.1h-7.4l0,0v6.5l0,0v18.6h7.4
				v-7.6h5.8v7.6h7.4v-18.6h0.1V307z M296.3,315h-5.8v-4.5h4.1h1.7V315z"/>
			<path fill="#FFFFFF" stroke="#FFFFFF" stroke-miterlimit="10" d="M398.8,307l-3-3.1h-10.1h-7.2l-0.2-0.2v0.2v6.5v11.6v4h0.1
				l3,3.1h2.5h1.7h0.1h5.8h7.4v-18.6h0.1L398.8,307L398.8,307z M391.4,322.3h-5.8v-11.8h4.1h1.7V322.3z"/>
			<path fill="#FFFFFF" stroke="#FFFFFF" stroke-miterlimit="10" d="M338.8,329.1l-4-7.6h2.6v-11.1h0.1V307h-0.1l-3-3.1h-10.1H317
				l0,0v6.5l0,0v18.6h7.4v-7.6h2.1h1.3l4,7.6H338.8z M324.3,315v-4.5h4.1h1.7v4.5H324.3z"/>
			<g>
				<polygon fill="#FFFFFF" stroke="#FFFFFF" stroke-miterlimit="10" points="367.5,322.3 358.8,322.3 358.8,303.9 351.4,303.9 
					351.4,328.9 358.8,328.9 367.5,328.9 				"/>
			</g>
			<polygon fill="#FFFFFF" stroke="#FFFFFF" stroke-miterlimit="10" points="424.9,303.8 424.8,303.8 417.5,303.8 417.5,303.8 
				411.7,303.8 411.7,310.4 417.5,310.4 417.5,328.7 424.8,328.7 424.8,328.6 424.9,328.7 424.9,310.4 430.6,310.4 430.6,303.8 			
				"/>
			<polygon fill="#FFFFFF" stroke="#FFFFFF" stroke-miterlimit="10" points="454.5,303.8 454.4,303.8 447.1,303.8 447.1,303.8 
				441.3,303.8 441.3,310.4 447.1,310.4 447.1,328.7 454.4,328.7 454.4,328.6 454.5,328.7 454.5,310.4 460.2,310.4 460.2,303.8 			
				"/>
			<polygon fill="#FFFFFF" stroke="#FFFFFF" stroke-miterlimit="10" points="491,310.3 491,303.8 479.2,303.8 478.5,303.8 
				471.8,303.8 471.8,329 478.5,329 479.2,329 491,329 491,322.4 479.2,322.4 479.2,319.6 491,319.6 491,313 479.2,313 479.2,310.3 
							"/>
		</g>
	</g>
</g>
<g id="Calque_2">
</g>
<g id="Calque_3">
</g>
</svg>
